<svg xmlns="http://www.w3.org/2000/svg" width="62" height="57" viewBox="0 0 62 57">
  <g id="Group_1" data-name="Group 1" transform="translate(-381 95)">
    <text id="UX_ATIK" data-name="UX
ATIK" transform="translate(412 -69.351)" fill="#ef5350" font-size="20.283" font-family="Roboto-Bold, Roboto" font-weight="700" letter-spacing="0.04em"><tspan x="-13.523" y="0">UX</tspan><tspan fill="#10131a" font-size="14"><tspan x="-15.954" y="19.607">ATIK</tspan></tspan></text>
    <g id="Rectangle_530" data-name="Rectangle 530" transform="translate(6 -121)" opacity="0.702">
      <g id="Rectangle_530-2" data-name="Rectangle 530" transform="translate(375 26)" fill="none" stroke="#fff" stroke-width="2">
        <rect width="62" height="57" rx="3" stroke="none"/>
        <rect x="1" y="1" width="60" height="55" rx="2" fill="none"/>
      </g>
      <g id="Stroke_Effect" data-name="Stroke Effect" fill="none" stroke-linejoin="round">
        <path d="M378,26h56a3,3,0,0,1,3,3V80a3,3,0,0,1-3,3H378a3,3,0,0,1-3-3V29A3,3,0,0,1,378,26Z" stroke="none"/>
        <path d="M 378 27 C 376.8971862792969 27 376 27.89720153808594 376 29 L 376 80 C 376 81.10279846191406 376.8971862792969 82 378 82 L 434 82 C 435.1028137207031 82 436 81.10279846191406 436 80 L 436 29 C 436 27.89720153808594 435.1028137207031 27 434 27 L 378 27 M 378 26 L 434 26 C 435.6568603515625 26 437 27.34314727783203 437 29 L 437 80 C 437 81.65685272216797 435.6568603515625 83 434 83 L 378 83 C 376.3431396484375 83 375 81.65685272216797 375 80 L 375 29 C 375 27.34314727783203 376.3431396484375 26 378 26 Z" stroke="none" fill="#10131a"/>
      </g>
    </g>
  </g>
</svg>
